<svg viewBox="0 0 28 28" xmlns="http://www.w3.org/2000/svg">
  <g stroke="#cda352" stroke-width="2" stroke-linecap="round" fill="none">
    <circle cx="14" cy="14" r="11"/>
    <g><line x1="14" y1="3" x2="14" y2="0.5"/><line x1="14" y1="3" x2="14" y2="11"/></g>
    <g transform="rotate(60 14 14)"><line x1="14" y1="3" x2="14" y2="0.5"/><line x1="14" y1="3" x2="14" y2="11"/></g>
    <g transform="rotate(120 14 14)"><line x1="14" y1="3" x2="14" y2="0.5"/><line x1="14" y1="3" x2="14" y2="11"/></g>
    <g transform="rotate(180 14 14)"><line x1="14" y1="3" x2="14" y2="0.5"/><line x1="14" y1="3" x2="14" y2="11"/></g>
    <g transform="rotate(240 14 14)"><line x1="14" y1="3" x2="14" y2="0.5"/><line x1="14" y1="3" x2="14" y2="11"/></g>
    <g transform="rotate(300 14 14)"><line x1="14" y1="3" x2="14" y2="0.5"/><line x1="14" y1="3" x2="14" y2="11"/></g>
  </g>
  <circle cx="14" cy="14" r="3" fill="#cda352"/>
</svg>
